<?xml version="1.0" standalone="no"?>
<!DOCTYPE svg PUBLIC "-//W3C//DTD SVG 20010904//EN"
 "http://www.w3.org/TR/2001/REC-SVG-20010904/DTD/svg10.dtd">
<svg version="1.0" xmlns="http://www.w3.org/2000/svg"
 width="194.000000pt" height="194.000000pt" viewBox="0 0 194.000000 194.000000"
 preserveAspectRatio="xMidYMid meet">
<metadata>
Created by potrace 1.14, written by Peter Selinger 2001-2017
</metadata>
<g transform="translate(0.000000,194.000000) scale(0.100000,-0.100000)"
fill="#000000" stroke="none">
<path d="M1113 1912 c4 -5 9 -27 12 -48 5 -35 11 -65 30 -169 8 -40 15 -83 21
-120 2 -16 10 -64 18 -105 8 -41 17 -88 20 -105 3 -16 8 -41 11 -55 2 -13 7
-40 10 -60 3 -20 8 -47 11 -60 3 -14 6 -32 8 -40 14 -92 20 -117 27 -130 6
-13 54 -15 328 -15 177 0 321 1 321 3 0 6 -38 53 -74 92 -17 19 -68 76 -111
125 -44 50 -91 102 -105 116 -14 15 -40 44 -59 65 -50 58 -162 184 -193 217
-15 16 -56 62 -90 100 -125 141 -172 192 -181 196 -6 2 -7 -1 -4 -7z"/>
<path d="M245 1710 c-84 -19 -176 -95 -217 -178 l-23 -47 -3 -600 -3 -600 155
0 c85 0 158 3 162 7 8 9 7 225 -2 239 -3 5 0 9 6 9 6 0 9 4 5 9 -3 5 -5 56 -5
113 0 57 0 113 0 125 0 12 0 26 -1 30 -1 4 -1 29 0 55 l1 47 158 0 158 1 -1
-302 c0 -167 1 -310 3 -318 3 -13 27 -16 160 -15 l157 0 -1 595 c-1 586 -1
596 -22 643 -35 77 -132 164 -205 185 -32 8 -447 11 -482 2z m290 -164 c89
-38 102 -74 101 -291 l-1 -170 -156 -2 c-127 -1 -156 2 -157 13 -1 8 -1 34 -1
59 0 25 0 53 -1 63 -1 59 1 105 4 111 2 3 0 15 -4 26 -11 30 7 105 34 140 44
57 116 78 181 51z"/>
<path d="M1276 921 c-2 -9 -8 -36 -12 -61 -11 -68 -15 -88 -49 -275 -13 -71
-26 -146 -29 -165 -3 -19 -8 -46 -11 -60 -8 -40 -27 -143 -32 -175 -2 -16 -10
-58 -17 -92 -7 -35 -9 -63 -5 -63 3 0 24 19 45 43 83 93 190 212 214 238 14
15 45 51 70 79 25 29 65 74 90 101 25 26 56 60 69 76 37 42 173 194 201 224
14 15 34 37 45 50 12 13 35 40 53 61 l32 36 -330 0 c-296 0 -330 -2 -334 -17z"/>
</g>
</svg>
