<?xml version="1.0" encoding="utf-8"?>
<!-- Generator: Adobe Illustrator 18.1.1, SVG Export Plug-In . SVG Version: 6.00 Build 0)  -->
<!DOCTYPE svg PUBLIC "-//W3C//DTD SVG 1.1//EN" "http://www.w3.org/Graphics/SVG/1.1/DTD/svg11.dtd">
<svg version="1.1" id="Layer_1" xmlns="http://www.w3.org/2000/svg" xmlns:xlink="http://www.w3.org/1999/xlink" x="0px" y="0px"
	 viewBox="0 0 432 408" enable-background="new 0 0 432 408" xml:space="preserve">
<g>
	<path fill="#3279B2" d="M65.7,276.4V159.8c0-9.2,3.3-17.1,9.9-23.6c6.6-6.5,14.4-9.8,23.5-9.8h33.4c9.1,0,16.9,3.3,23.4,9.9
		c6.5,6.6,9.8,14.4,9.8,23.5v116.6h-33.2v-66.6H99.1v66.6H65.7z M99.1,193h33.4v-33.2c0-4.7-1.6-8.6-4.9-11.9
		c-3.3-3.3-7.2-4.9-11.9-4.9c-4.5,0-8.4,1.6-11.7,4.9c-3.3,3.3-4.9,7.2-4.9,11.9V193z"/>
	<path fill="#3279B2" d="M184.3,276.4v-150h7.8l92.2,83.4v-83.4h16.8v150h-7.6L201.1,193v83.4H184.3z"/>
</g>
<polyline fill="#BB6026" points="317.2,304.5 334.7,207.9 403.8,207.9 317.2,304.5 "/>
<polyline fill="#D37744" points="317.2,104.2 334.7,200.9 403.8,200.9 317.2,104.2 "/>
</svg>
