<?xml version="1.0" encoding="utf-8"?>
<!-- Generator: Adobe Illustrator 18.1.1, SVG Export Plug-In . SVG Version: 6.00 Build 0)  -->
<!DOCTYPE svg PUBLIC "-//W3C//DTD SVG 1.1//EN" "http://www.w3.org/Graphics/SVG/1.1/DTD/svg11.dtd">
<svg version="1.1" id="Layer_1" xmlns="http://www.w3.org/2000/svg" xmlns:xlink="http://www.w3.org/1999/xlink" x="0px" y="0px"
	 viewBox="0 0 1782.6 408" enable-background="new 0 0 1782.6 408" xml:space="preserve">
<g>
	<path fill="#3279B2" d="M350.3,282.4V165.8c0-9.2,3.3-17.1,9.9-23.6c6.6-6.5,14.4-9.8,23.5-9.8h33.4c9.1,0,16.9,3.3,23.4,9.9
		c6.5,6.6,9.8,14.4,9.8,23.5v116.6h-33.2v-66.6h-33.4v66.6H350.3z M383.7,199h33.4v-33.2c0-4.7-1.6-8.6-4.9-11.9
		c-3.3-3.3-7.2-4.9-11.9-4.9c-4.5,0-8.4,1.6-11.7,4.9c-3.3,3.3-4.9,7.2-4.9,11.9V199z"/>
	<path fill="#3279B2" d="M552.1,199h-16.6c-1.3-11.1-6.9-16.6-16.8-16.6c-4.5,0-8.4,1.6-11.7,4.9c-3.3,3.3-4.9,7.2-4.9,11.7v50
		c0,4.5,1.6,8.5,4.9,11.8c3.3,3.3,7.2,5,11.7,5c9.9,0,15.5-5.6,16.8-16.8h16.6c-1.3,22.3-12.5,33.4-33.4,33.4h-16.6
		c-9.1,0-16.9-3.3-23.5-9.8c-6.6-6.5-9.9-14.4-9.9-23.6v-50c0-9.1,3.3-16.9,9.9-23.4c6.6-6.5,14.4-9.8,23.5-9.8h16.6
		C539.8,165.8,550.9,176.9,552.1,199z"/>
	<path fill="#3279B2" d="M653.4,199h-16.6c-1.3-11.1-6.9-16.6-16.8-16.6c-4.5,0-8.4,1.6-11.7,4.9c-3.3,3.3-4.9,7.2-4.9,11.7v50
		c0,4.5,1.6,8.5,4.9,11.8c3.3,3.3,7.2,5,11.7,5c9.9,0,15.5-5.6,16.8-16.8h16.6c-1.3,22.3-12.5,33.4-33.4,33.4h-16.6
		c-9.1,0-16.9-3.3-23.5-9.8c-6.6-6.5-9.9-14.4-9.9-23.6v-50c0-9.1,3.3-16.9,9.9-23.4c6.6-6.5,14.4-9.8,23.5-9.8H620
		C641.1,165.8,652.2,176.9,653.4,199z"/>
	<path fill="#3279B2" d="M771.4,232.4h-66.6V249c0,4.5,1.6,8.5,4.9,11.8c3.3,3.3,7.2,5,11.7,5h16.8c11.1,0,16.6-5.6,16.6-16.8h16.6
		c-2.5,22.3-13.6,33.4-33.2,33.4h-33.4c-9.1,0-16.9-3.3-23.5-9.8c-6.6-6.5-9.9-14.4-9.9-23.6v-50c0-9.1,3.3-16.9,9.9-23.4
		c6.6-6.5,14.4-9.8,23.5-9.8h33.4c9.1,0,16.9,3.3,23.4,9.8c6.5,6.5,9.8,14.3,9.8,23.4V232.4z M704.8,215.8h33.4V199
		c0-4.5-1.6-8.4-4.9-11.7c-3.3-3.3-7.2-4.9-11.9-4.9c-4.5,0-8.4,1.6-11.7,4.9c-3.3,3.3-4.9,7.2-4.9,11.7V215.8z"/>
	<path fill="#3279B2" d="M790,282.4v-150h33.4v150H790z"/>
	<path fill="#3279B2" d="M942.4,232.4h-66.6V249c0,4.5,1.6,8.5,4.9,11.8c3.3,3.3,7.2,5,11.7,5h16.8c11.1,0,16.6-5.6,16.6-16.8h16.6
		c-2.5,22.3-13.6,33.4-33.2,33.4h-33.4c-9.1,0-16.9-3.3-23.5-9.8c-6.6-6.5-9.9-14.4-9.9-23.6v-50c0-9.1,3.3-16.9,9.9-23.4
		c6.6-6.5,14.4-9.8,23.5-9.8h33.4c9.1,0,16.9,3.3,23.4,9.8c6.5,6.5,9.8,14.3,9.8,23.4V232.4z M875.8,215.8h33.4V199
		c0-4.5-1.6-8.4-4.9-11.7c-3.3-3.3-7.2-4.9-11.9-4.9c-4.5,0-8.4,1.6-11.7,4.9c-3.3,3.3-4.9,7.2-4.9,11.7V215.8z"/>
	<path fill="#3279B2" d="M994.3,282.4h-33.4V165.8h33.4V199c1.3-11.1,4.8-19.4,10.3-24.9c5.5-5.5,13.2-8.3,23.1-8.3h16.6V199h-33.4
		c-4.5,0-8.4,1.6-11.7,4.9c-3.3,3.3-4.9,7.2-4.9,11.9V282.4z"/>
	<path fill="#3279B2" d="M1121.6,215.8V199c0-4.5-1.6-8.4-4.9-11.7c-3.3-3.3-7.2-4.9-11.9-4.9h-16.6c-9.9,0-15.4,5.5-16.6,16.6
		h-16.8c2.7-22.1,13.8-33.2,33.4-33.2h33.4c9.1,0,16.9,3.3,23.4,9.8c6.5,6.5,9.8,14.3,9.8,23.4v83.4h-33.2v-16.6
		c-1.3,11.1-6.9,16.6-16.8,16.6h-16.6c-9.1,0-16.9-3.3-23.5-9.8c-6.6-6.5-9.9-14.4-9.9-23.6c0-9.1,3.3-16.9,9.9-23.4
		c6.6-6.5,14.4-9.8,23.5-9.8H1121.6z M1121.6,232.4h-16.8c-4.5,0-8.4,1.6-11.7,4.9c-3.3,3.3-4.9,7.2-4.9,11.7
		c0,4.5,1.6,8.5,4.9,11.8c3.3,3.3,7.2,5,11.7,5c4.7,0,8.6-1.7,11.9-5c3.3-3.3,4.9-7.3,4.9-11.8V232.4z"/>
	<path fill="#3279B2" d="M1187.9,132.4h33.2v33.4h16.8v16.6h-16.8V249c0,5.5,1.8,9.6,5.4,12.5c3.6,2.9,6.9,4.3,9.8,4.3h1.6v16.6
		h-16.8c-9.1,0-16.9-3.3-23.4-9.8c-6.5-6.5-9.8-14.4-9.8-23.6v-66.6h-16.8v-16.6h16.8V132.4z"/>
	<path fill="#3279B2" d="M1354.5,232.4h-66.6V249c0,4.5,1.6,8.5,4.9,11.8c3.3,3.3,7.2,5,11.7,5h16.8c11.1,0,16.6-5.6,16.6-16.8h16.6
		c-2.5,22.3-13.6,33.4-33.2,33.4h-33.4c-9.1,0-16.9-3.3-23.5-9.8c-6.6-6.5-9.9-14.4-9.9-23.6v-50c0-9.1,3.3-16.9,9.9-23.4
		c6.6-6.5,14.4-9.8,23.5-9.8h33.4c9.1,0,16.9,3.3,23.4,9.8c6.5,6.5,9.8,14.3,9.8,23.4V232.4z M1287.9,215.8h33.4V199
		c0-4.5-1.6-8.4-4.9-11.7c-3.3-3.3-7.2-4.9-11.9-4.9c-4.5,0-8.4,1.6-11.7,4.9c-3.3,3.3-4.9,7.2-4.9,11.7V215.8z"/>
</g>
<polygon fill="#BB6026" points="1449.4,223.9 1362.8,320.5 1380.3,223.9 "/>
<polygon fill="#D37744" points="1449.4,216.9 1362.8,120.2 1380.3,216.9 "/>
</svg>
